<svg xmlns="http://www.w3.org/2000/svg" viewBox="0 0 132 25">
  <g fill="none" fill-rule="evenodd">
    <path d="M110.615 9.463c-1.695 0-2.65 1.524-2.65 2.216v.018c0 .23.135.291.603.291.45 0 .938 0 1.406-.018.549 0 1.498-.055 1.967-.23.351-.098.604-.31.604-.729 0-.376-.314-1.548-1.93-1.548zM94.123 9.518c-1.795 0-2.904 1.633-2.904 3.697 0 2.082 1.153 4.194 3.02 4.194h.02c1.874 0 2.805-2.27 2.805-3.794 0-1.997-.993-4.097-2.941-4.097zM73.117 9.67c-1.794 0-2.904 1.638-2.904 3.696 0 2.076 1.153 4.195 3.02 4.195h.02c1.874 0 2.805-2.27 2.805-3.794 0-1.997-.993-4.098-2.941-4.098zM16.487 13.409c-.118 0-.253.079-.45.176-.432.212-.894.461-1.345.692-.64.364-1.27.825-1.27 1.639v.018c0 .692.524 1.08 1.19 1.08.623 0 1.172-.29 1.56-.71.389-.425.389-.752.389-1.268V13.9c.006-.358.006-.491-.074-.491z"/>
    <path d="M20.02 16.45c-.1 0-.198.115-.333.249a.805.805 0 01-.568.23c-.604 0-.64-.867-.64-1.402v-4.31c0-.886 0-1.195-.39-1.523-.523-.443-1.442-.559-2.102-.559-2.614 0-4.464 1.657-4.464 2.695 0 .25.136.365.389.365s.623-.134.838-.213c.389-.152.568-.461.74-.807.432-.905.937-1.5 1.992-1.5 1.054 0 1.091.729 1.091 1.542v.868c0 .638 0 .674-.721 1.002-.524.249-1.012.48-1.523.692-1.27.613-2.824 1.348-2.824 2.695 0 1.002.875 1.633 1.93 1.633.801 0 1.523-.31 2.084-.655.524-.328.937-.71 1.035-.71.08 0 .155.115.253.248.272.407.567 1.02 1.27 1.02.876 0 2.084-.825 2.084-1.269-.006-.157-.043-.29-.142-.29zm-3.453-1.426c0 .522 0 .843-.389 1.268-.388.425-.937.71-1.56.71-.665 0-1.19-.382-1.19-1.08v-.018c0-.808.623-1.269 1.27-1.64.45-.23.92-.479 1.345-.691.197-.097.333-.176.45-.176.08 0 .08.133.08.48v1.147h-.006zM126.535 17.24c-.839-.055-.857-.499-.857-1.5V10.16c0-.328.018-.613.018-.904 0-.213-.018-.328-.197-.328-.154 0-.234.097-.407.249-.506.406-1.406.904-2.084 1.038-.29.06-.567.079-.567.346 0 .212.135.212.549.23.702.019.783.231.783 1.366v3.503c0 1.153 0 1.542-.894 1.56-.253.018-.568.018-.568.328 0 .194.173.23.333.23.586 0 1.172-.078 2.164-.078.666 0 1.406.078 2.01.078.117 0 .272-.06.272-.248-.013-.274-.321-.274-.555-.292zM130.511 8.923c-.172 0-.27.115-.524.31-.37.345-1.27.825-1.874.94-.333.08-.604.116-.604.365 0 .212.197.212.524.23.703.037.783.25.783 1.232v6.854c0 1.542-.407 2.137-1.406 2.908-.271.17-.37.249-.37.425 0 .133.117.212.235.212.332 0 2.01-1.135 2.614-1.942.758-.844.838-1.73.838-2.775V9.287c0-.23 0-.364-.216-.364zM129.753 7.478h.019c.622 0 1.134-.461 1.134-1.153 0-.656-.506-1.1-1.134-1.1-.802 0-1.153.578-1.153 1.136 0 .637.548 1.117 1.134 1.117zM124.697 7.478h.019c.666 0 1.153-.48 1.153-1.153 0-.613-.506-1.1-1.11-1.1-.802 0-1.19.578-1.19 1.136 0 .692.567 1.117 1.128 1.117zM58.16 7.63h.018c.666 0 1.153-.48 1.153-1.154 0-.619-.506-1.098-1.11-1.098-.802 0-1.19.576-1.19 1.135-.006.698.561 1.117 1.128 1.117zM67.013 9.226c-.758 0-1.326.462-1.696.826-.333.31-.567.674-.66.674-.098 0-.098-.097-.098-.365v-.904c0-.212 0-.389-.234-.389-.173 0-.253.116-.487.328-.432.407-1.326.868-1.85.984-.407.097-.623.115-.623.382 0 .194.136.194.55.23.659.037.739.268.739 1.403v3.254c0 1.214 0 1.693-.894 1.712-.253.018-.567.018-.567.327 0 .195.172.231.333.231.548 0 1.227-.079 2.108-.079.857 0 1.659.08 2.201.08.253 0 .432-.056.432-.25 0-.291-.432-.291-.703-.31-.974-.018-.993-.54-.993-1.48v-2.945c0-.728 0-1.196.37-1.754.216-.31.506-.674.919-.674.253 0 .45.17.641.383.197.212.407.406.783.406.549 0 .993-.388.993-.983-.019-.644-.561-1.087-1.264-1.087zM30.883 17.373c-.838-.037-.857-.559-.857-1.481V12.62c0-1.1-.08-1.888-.641-2.544-.586-.674-1.424-.94-2.226-.94-.875 0-1.615.363-2.145.77-.488.346-.894.71-.975.71-.08 0-.08-.115-.08-.346v-.825c0-.194 0-.364-.197-.364-.179 0-.271.151-.407.291-.469.48-1.48.94-1.991 1.056-.253.055-.55.08-.55.346 0 .195.155.213.525.23.641.02.721.232.721 1.288v3.369c0 1.196 0 1.675-.857 1.712-.253.018-.548.036-.548.328 0 .194.197.23.314.23.567 0 1.19-.079 1.948-.079.685 0 1.443.08 1.992.08.172 0 .314-.098.314-.268 0-.249-.314-.267-.487-.291-.758-.037-.758-.522-.758-1.481V12.54c0-.656.037-1.057.524-1.56a2.318 2.318 0 011.695-.71c.703 0 1.289.309 1.622.807.29.48.29 1.177.29 1.712v3.096c0 .965 0 1.444-.74 1.48-.216.037-.487.061-.487.31 0 .213.154.25.314.25.524 0 1.153-.08 1.813-.08.641 0 1.541.08 2.145.08.118 0 .272-.055.272-.25.006-.267-.309-.285-.543-.303zM73.117 9.135c-3.157 0-4.933 2.27-4.933 4.444 0 2.543 2.146 4.522 4.933 4.522h.018c2.867 0 4.976-2.04 4.976-4.565-.006-2.015-1.585-4.4-4.994-4.4zm.135 8.426h-.018c-1.868 0-3.021-2.119-3.021-4.195 0-2.058 1.11-3.697 2.904-3.697 1.948 0 2.947 2.1 2.947 4.098-.006 1.524-.943 3.794-2.812 3.794zM120.751 9.08c-.758 0-1.325.462-1.695.826-.333.31-.567.674-.666.674-.099 0-.099-.097-.099-.364V9.31c0-.212 0-.382-.234-.382-.179 0-.253.115-.487.328-.432.406-1.326.868-1.85.983-.407.097-.622.115-.622.389 0 .194.135.194.548.23.666.037.74.267.74 1.402v3.254c0 1.214 0 1.694-.894 1.712-.253.018-.567.018-.567.328 0 .194.173.23.333.23.549 0 1.227-.078 2.102-.078.857 0 1.659.079 2.201.079.253 0 .432-.061.432-.25 0-.29-.432-.29-.703-.309-.974-.018-.992-.54-.992-1.481v-2.944c0-.735 0-1.196.37-1.755.215-.31.505-.673.918-.673.253 0 .45.176.641.388.198.213.407.407.777.407.549 0 .993-.383.993-.984.006-.667-.543-1.104-1.246-1.104zM94.123 8.983c-3.157 0-4.933 2.27-4.933 4.444 0 2.543 2.146 4.522 4.933 4.522h.018c2.867 0 4.97-2.04 4.97-4.558 0-2.022-1.579-4.408-4.988-4.408zm.135 8.426h-.018c-1.875 0-3.021-2.118-3.021-4.194 0-2.058 1.11-3.697 2.904-3.697 1.948 0 2.947 2.1 2.947 4.097-.006 1.524-.944 3.794-2.812 3.794zM110.788 8.983c-2.281 0-5.031 1.463-5.031 4.541 0 2.331 1.813 4.425 4.6 4.425 1.343 0 2.336-.382 3.2-1.117.234-.194.758-.692.758-.922a.205.205 0 00-.216-.213c-.117 0-.296.195-.623.462-.468.364-1.153.71-2.145.71-2.183 0-3.509-1.754-3.509-3.733 0-.54.099-.54.759-.54h5.48c.254 0 .39-.134.39-.498.005-1.56-1.246-3.115-3.663-3.115zm1.153 2.75c-.469.176-1.424.231-1.967.231-.468.018-.956.018-1.406.018-.468 0-.604-.054-.604-.291v-.018c0-.692.956-2.216 2.651-2.216 1.616 0 1.93 1.172 1.93 1.542 0 .425-.253.637-.604.734zM42.117 17.355c-.389 0-.722-.31-1.27-1.038a437.444 437.444 0 00-2.67-3.485c-.136-.194-.315-.346-.315-.498 0-.176.315-.382.45-.497.45-.328.956-.71 1.388-1.038.684-.48 1.147-.844 2.01-.887.252-.018.487-.036.487-.291 0-.249-.136-.249-.487-.249-.524.036-1.227.055-1.912.055a24.75 24.75 0 01-1.714-.055c-.29 0-.468 0-.468.23 0 .347.487.328.703.328.271.037.666.061.666.389 0 .31-.488.692-.783.923-.759.595-1.523 1.196-2.282 1.79-.172.152-.388.346-.505.346-.117 0-.117-.23-.117-.443V4.886c0-.31-.019-.407-.216-.407-.136 0-.333.116-.469.213-.623.346-1.48.558-2.182.637-.235.018-.407.097-.407.273 0 .195.154.231.431.267.66.037.937.061.937 1.057v9.178c0 .868-.055 1.25-.894 1.269-.252.018-.567.018-.567.328 0 .194.173.23.333.23.685 0 1.387-.079 2.066-.079.604 0 1.264.08 1.892.08.198 0 .352-.055.352-.268 0-.23-.389-.267-.586-.291-.37-.018-.684-.25-.684-.941v-1.93c0-.462.758-.941.937-.941.173 0 .388.327.641.655.506.692 1.011 1.384 1.523 2.082.136.195.407.54.407.753 0 .291-.271.328-.506.346-.172.018-.45.06-.45.291 0 .231.154.25.29.25.703 0 1.424-.08 2.109-.08.703 0 1.405.08 2.102.08.173 0 .37-.037.37-.268-.012-.26-.358-.297-.61-.315zM105.369 16.335c-.1 0-.235.133-.525.31-.215.151-.524.309-.894.309-.955 0-1.072-1.08-1.072-2.022v-4.504c0-.504.098-.504.703-.504.468 0 1.035.037 1.48.037.27 0 .332-.06.332-.48 0-.23 0-.364-.216-.364-.567 0-1.442.036-1.991.036-.29-.018-.315-.17-.315-.424V7.132c0-.134-.018-.291-.234-.291-.197 0-.271.115-.37.346-.548 1.177-1.288 1.614-2.182 2.1-.235.097-.37.152-.37.364 0 .213.197.25.431.25h.524c.216 0 .29.036.29.388v4.77c0 1.233.019 1.755.506 2.29.351.382.918.594 1.56.594 1.387 0 2.534-1.038 2.534-1.426.006-.067-.056-.182-.191-.182zM59.99 17.391c-.838-.055-.857-.498-.857-1.5v-5.578c0-.328.019-.613.019-.905 0-.212-.019-.327-.197-.327-.155 0-.235.097-.407.249-.506.406-1.406.904-2.084 1.038-.29.06-.567.078-.567.346 0 .212.135.212.548.23.703.018.777.23.777 1.366v3.503c0 1.153 0 1.542-.894 1.56-.253.018-.567.018-.567.328 0 .194.173.23.333.23.586 0 1.171-.079 2.164-.079.66 0 1.406.08 2.01.08.117 0 .271-.055.271-.25-.006-.273-.314-.273-.549-.291zM8.073 10.202c1.263.348 2.245 1.423 2.245 3.2 0 3.596-3.078 4.72-5.894 5.317-.31.074-.62.1-.881.1-1.435 0-2.316-.877-2.316-2.424 0-.248.166-1.521.166-1.795 0-.298-.023-.627-.095-1-.095-.497-.119-.9-.119-1.273 0-.597.072-1.075.072-1.622 0-.85-.215-1.124-.215-1.87 0-.248.19-1.447.19-1.72 0-.876-.38-1.2-.38-1.671 0-.1.047-.628.047-.752 0-1.075-.428-1.447-.428-2.323 0-.423.095-1.1.643-1.1.952 0 1.91.273 2.435 1.199.571-.497 1.048-.851 1.577-1.1.524-.223 1.096-.323 1.84-.323 2.53 0 3.96 1.92 3.96 4.442-.007 1.795-1.251 3.914-2.847 4.715zM7.145 3.86c-1.721 0-2.769 1.726-2.769 2.994 0 .149.143.925.143 1.124 0 .423-.071.926-.071 1.373 0 .497.095.876.5.876 1.262 0 4.298-1.646 4.298-4.144C9.24 4.735 8.383 3.86 7.145 3.86zm-.268 7.268c-1.072.024-1.697.223-2.03.571-.286.298-.358.677-.358 1.1 0 .646.19 1.397.19 2.025 0 .298-.19 1.05-.19 1.596 0 .373.096.646.381.646 2.007 0 4.132-1.397 4.132-3.671 0-1.218-1.024-2.267-2.125-2.267zM80.362 16.213c0-.465-.315-.96-.315-1.4 0-.985.17-1.97.17-2.949 0-.862-.195-1.914-.195-2.776 0-.716.194-1.425.219-2.165.024-.27.024-.563.024-.838 0-.465-.17-1.798-.17-2.337 0-.611.146-.69.752-1.082.388-.22 1.528-.575 1.97-.575.728 0 1.019 1.046 1.019 1.633 0 .936-.219.887-.219 1.822 0 .22.097.416.097.637 0 .39-.218.74-.218 1.131 0 .367.17.716.17 1.083-.097.74-.146 1.675-.146 2.63 0 1.522.097 3.07.122 4.054 0 .343-.097.66-.097 1.01 0 1.4 5.783.317 5.783 1.424 0 .96-2.892 1.01-3.668 1.01-1.358 0-3.11.293-4.474.293-.897 0-1.267-.244-1.267-1.131 0-.587.412-.936.437-1.425v-.05h.006zM54.681 10.255c-.511.238-.627.445-.627.916.025 3.815-2.313 6.614-4.462 6.602-1.23-.007-2.635-.546-3.256-1.739-.439-.84-.481-1.066-1.2-1.606-1.04-.766-.639-1.983-1.49-2.924-.208-.233-.324-.59-.317-.917 0-.2.048-.376.115-.533a.92.92 0 00.116-.477c0-.301-.091-.584-.085-.891.054-1.55.59-2.491 1.272-3.803 1.79-3.47 4.09-4.399 6.958-4.863a7.531 7.531 0 011.418.031c.353.05.609.15.706.207.317.182.426.345.426.521 0 .2.207 1.073-.231.935-.365-.113-1.12-.333-1.625-.32-1.26.044-2.514.496-3.306 1.073-1.856 1.356-2.24 2.711-2.252 4.738-.012 2.742.03 2.993 1.09 4.65.827 1.274 1.954 3.131 3.183 3.138.883.006 1.729-1.362 1.796-2.962.043-.948-.091-1.337-1.15-1.6-.968-.245-2.119-.37-2.131-1.18-.018-.891 1.905-1.513 3.366-1.506.791.006 1.729.332 1.76 1.48.018.421.194.904-.074 1.03z" fill="#FFF" fill-rule="nonzero"/>
  </g>
</svg>
