<svg xmlns="http://www.w3.org/2000/svg" viewBox="0 0 73 25"><defs/><g fill="#FFF" fill-rule="nonzero"><path d="M16.27200033 16.321333c.12266667-.03066667.184-.092.21466667-.21466667l.15333333-1.80933333-.21466666-.06133333v-.092c.15333333-.03066667.368-.03066667.49066666-.03066667h.12266667l.552 1.71733333.52133333-1.71733333h.15333334c.12266666 0 .276 0 .42933333.03066667v.092l-.21466667.06133333.15333334 1.932.21466666.03066667v.092c-.092.03066666-.21466666.06133333-.33733333.06133333-.15333333 0-.276 0-.39866667-.03066667V16.321333c.15333334-.03066667.21466667-.12266667.21466667-.276l-.092-1.59466667-.61333333 1.96266667-.12266667.03066667-.644-1.96266667-.12266667 1.77866667.21466667.06133333v.092c-.15333333.03066667-.24533333.06133333-.39866667.06133333-.092 0-.184 0-.276-.03066666V16.321333zM19.062667 16.321333c.092-.03066667.184-.092.184-.184v-1.196l-.21466667-.092v-.06133333c.15333334-.03066667.30666667-.06133334.42933334-.06133334h.12266666l-.03066666.184v1.34933334l.184.06133333v.06133333c-.12266667.03066667-.21466667.06133334-.39866667.06133334-.092 0-.184 0-.276-.03066667v-.092zm.15333333-2.14666667c0-.12266666.092-.21466666.21466667-.21466666.092 0 .184.06133333.184.184 0 .12266666-.092.21466666-.184.21466666-.12266667.03066667-.21466667-.06133333-.21466667-.184zM19.982667 16.321333c.092-.03066667.184-.092.184-.184v-1.196l-.21466667-.092v-.092c.15333334-.03066667.30666667-.06133333.42933334-.06133333h.092v.184c.12266666-.12266667.30666666-.184.52133333-.184.30666667 0 .49066667.184.49066667.552v.98133333l.184.06133333v.06133334c-.092.03066666-.21466667.06133333-.368.06133333-.06133334 0-.15333334 0-.21466667-.03066667V16.321333c.092-.03066667.12266667-.092.12266667-.24533333V15.401333c0-.33733333-.15333334-.49066667-.368-.49066667-.15333334 0-.276.06133334-.368.12266667v1.196l.184.06133333v.06133334c-.12266667.03066666-.24533334.06133333-.39866667.06133333-.092 0-.184 0-.276-.03066667V16.321333zM21.88400033 16.321333c.092-.03066667.184-.092.184-.184v-1.196l-.21466666-.092v-.06133333c.15333333-.03066667.30666666-.06133334.42933333-.06133334h.12266667l-.03066667.184v1.34933334l.184.06133333v.06133333c-.12266667.03066667-.21466667.06133334-.39866667.06133334-.092 0-.184 0-.276-.03066667v-.092zm.15333334-2.14666667c0-.12266666.092-.21466666.21466666-.21466666.092 0 .184.06133333.184.184 0 .12266666-.092.21466666-.184.21466666-.12266666.03066667-.21466666-.06133333-.21466666-.184zM22.80400033 16.01466633c.15333334.15333334.30666667.21466667.49066667.21466667.184 0 .30666667-.092.30666667-.21466667 0-.12266666-.06133334-.21466666-.30666667-.30666666l-.184-.06133334c-.21466667-.092-.30666667-.24533333-.30666667-.42933333 0-.276.24533334-.52133333.61333334-.52133333.276 0 .39866666.092.39866666.21466666 0 .06133334 0 .092-.03066666.15333334-.12266667-.092-.276-.12266667-.39866667-.12266667-.21466667 0-.33733333.092-.33733333.21466667 0 .12266666.06133333.184.276.276l.184.06133333c.24533333.092.33733333.21466667.33733333.42933333 0 .276-.276.52133334-.644.52133334-.30666667 0-.46-.092-.46-.276.03066667-.06133334.03066667-.12266667.06133333-.15333334zM24.24533367 15.43199967v-.46h-.184V14.849333l.368-.368h.12266666v.30666667h.46l-.03066666.184h-.46V15.79999967c0 .276.092.39866666.21466666.39866666.092 0 .184-.03066666.276-.092h.03066667c0 .21466667-.12266667.30666667-.368.30666667-.276 0-.42933333-.15333333-.42933333-.49066667-.03066667-.15333333 0-.33733333 0-.49066666zM25.134667 16.321333c.092-.03066667.184-.092.184-.184v-1.196l-.21466667-.092v-.092c.15333334-.03066667.30666667-.06133333.42933334-.06133333h.092v.24533333l.092-.12266667c.092-.092.184-.15333333.30666666-.15333333.12266667 0 .18399997.06133333.18399997.15333333 0 .06133334-.0306666.15333334-.0613333.21466667-.0613333-.06133333-.15333333-.092-.21466667-.092-.12266666 0-.21466666.06133333-.30666666.15333333V16.229333l.24533333.06133333v.06133334c-.12266667.03066666-.24533333.06133333-.42933333.06133333-.092 0-.21466667 0-.276-.03066667V16.321333H25.134667zM26.9133337 16.29066633l-.552-1.38-.1226667-.092v-.092h.644v.092l-.184.092.368 1.07333334.3373333-1.07333334-.184-.092v-.092h.5213334v.092l-.092.092-.4906667 1.38c-.276.76666667-.552 1.012-.736 1.012-.1533333 0-.2146667-.06133333-.2146667-.276h.1533334c.1533333 0 .368-.184.5213333-.552l.0306667-.184zM29.274667 14.665333c.4293333 0 .7666667.33733333.7666667.828 0 .58266667-.3986667.95066667-.828.95066667-.4293334 0-.7666667-.30666667-.7666667-.828 0-.58266667.3986667-.95066667.828-.95066667zm-.0306667 1.564c.2453334 0 .4906667-.21466667.4906667-.70533333 0-.39866667-.2146667-.644-.46-.644-.2453333 0-.4906667.24533333-.4906667.70533333-.0306666.42933333.184.644.46.644zM30.3173337 16.321333c.092-.03066667.184-.092.184-.184v-1.16533333h-.184V14.849333l.184-.092v-.276c0-.368.2453333-.644.6746666-.644.2453334 0 .3373334.06133333.3373334.184 0 .03066667 0 .092-.0306667.12266667-.1226667-.03066667-.3373333-.06133334-.46-.06133334-.1533333 0-.276.12266667-.276.39866667v.30666667h.46l-.0306667.184h-.4293333v1.288l.2146667.06133333v.06133333c-.1226667.03066667-.2453334.06133334-.4293334.06133334-.092 0-.184 0-.276-.03066667v-.092h.0613334zM31.9733337 16.29066633c.1533333-.03066666.2146666-.092.2146666-.276V14.297333l-.2146666-.092v-.092h1.3186666l-.0306666.52133333h-.092V14.573333c-.0306667-.184-.092-.24533333-.3066667-.24533333h-.368v.79733333h.368c.1533333 0 .2146667-.03066667.2453333-.12266667l.0306667-.092h.092v.67466667h-.092l-.0306667-.092c-.0306666-.12266667-.092-.184-.184-.184h-.4293333v.828h.4293333c.184 0 .276-.06133333.3373334-.184l.0306666-.06133333h.092l-.0613333.46h-1.3493333v-.06133334zM34.426667 14.69599967c.092 0 .184 0 .2453333.03066666V14.113333l-.2453333-.092v-.092c.1533333-.03066667.3373333-.06133333.4293333-.06133333h.1226667l-.0306667.184v2.024c.0306667.06133333.0613334.15333333.1226667.21466666-.0613333.06133334-.1533333.12266667-.2453333.15333334-.0613334-.06133334-.1226667-.12266667-.184-.21466667-.1226667.12266667-.3066667.21466667-.46.21466667-.368 0-.644-.30666667-.644-.76666667.0613333-.644.46-.98133333.8893333-.98133333zm.276 1.38v-1.16533334c-.0613333-.03066666-.1533333-.03066666-.2453333-.03066666-.3066667 0-.5213334.24533333-.5213334.736 0 .39866666.2146667.58266666.4293334.58266666.092 0 .2453333-.03066666.3373333-.12266666zM35.530667 14.941333l-.2146667-.092v-.06133333c.1533334-.03066667.3066667-.06133334.3986667-.06133334h.1226667l-.0306667.184v.79733334c0 .368.1226667.49066666.3373333.49066666.1226667 0 .276-.06133333.3373334-.092v-1.13466666l-.2146667-.092v-.06133334c.1533333-.03066666.3066667-.06133333.3986667-.06133333h.1226666l-.0306666.184v1.196c.0306666.06133333.092.12266667.1226666.184-.0613333.06133333-.1533333.12266667-.2453333.15333333-.0613333-.06133333-.1226667-.12266666-.1533333-.21466666-.092.092-.276.184-.5213334.184-.3066666 0-.4906666-.184-.4906666-.58266667v-.92h.0613333zM38.014667 14.69599967c.276 0 .368.092.368.21466666 0 .06133334-.0306667.12266667-.0306667.184-.1226666-.092-.276-.15333333-.3986666-.15333333-.2453334 0-.46.24533333-.46.644 0 .42933333.2146666.644.4906666.644.1226667 0 .3066667-.06133333.3986667-.15333333 0 .03066666.0306667.06133333.0306667.092 0 .15333333-.184.30666666-.5213334.30666666-.3986666 0-.7053333-.30666666-.7053333-.79733333 0-.644.368-.98133333.828-.98133333zM39.486667 15.46266633v-.092c0-.368-.092-.46-.3066667-.46-.184 0-.368.092-.5213333.21466667v-.092c0-.21466667.1533333-.368.5826667-.368.368 0 .5826666.184.5826666.46v.95066667c.0306667.06133333.092.12266666.1533334.184-.0613334.06133333-.1533334.12266666-.2453334.184-.0613333-.03066667-.1226666-.092-.1533333-.184-.092.092-.276.184-.4906667.184-.276 0-.46-.15333334-.46-.39866667-.0613333-.30666667.276-.58266667.8586667-.58266667zm-.3373333.76666667c.1226666 0 .2453333-.03066667.3373333-.092v-.49066667c-.3986667 0-.6133333.15333334-.6133333.368 0 .12266667.092.21466667.276.21466667zM40.314667 15.43199967v-.46h-.184V14.849333l.368-.368h.1226667v.30666667h.46l-.0306667.184h-.46V15.79999967c0 .276.092.39866666.2146667.39866666.092 0 .184-.03066666.276-.092h.0306666c0 .21466667-.1226666.30666667-.368.30666667-.276 0-.4293333-.15333333-.4293333-.49066667v-.49066666zM41.234667 16.321333c.092-.03066667.184-.092.184-.184v-1.196l-.2146667-.092v-.06133333c.1533334-.03066667.3066667-.06133334.4293334-.06133334h.1226666l-.0306666.184v1.34933334l.184.06133333v.06133333c-.1226667.03066667-.2146667.06133334-.3986667.06133334-.092 0-.184 0-.276-.03066667v-.092zm.1226667-2.14666667c0-.12266666.092-.21466666.2146666-.21466666.092 0 .184.06133333.184.184 0 .12266666-.092.21466666-.184.21466666-.1226666.03066667-.2146666-.06133333-.2146666-.184zM42.9520003 14.665333c.4293334 0 .7666667.33733333.7666667.828 0 .58266667-.3986667.95066667-.828.95066667s-.7666667-.30666667-.7666667-.828c0-.58266667.3986667-.95066667.828-.95066667zm-.0306666 1.564c.2453333 0 .4906666-.21466667.4906666-.70533333 0-.39866667-.2146666-.644-.46-.644-.2453333 0-.4906666.24533333-.4906666.70533333-.0306667.42933333.2146666.644.46.644zM43.994667 16.321333c.092-.03066667.184-.092.184-.184v-1.196l-.2146667-.092v-.092c.1533334-.03066667.3066667-.06133333.4293334-.06133333h.092v.184c.1226666-.12266667.3066666-.184.5213333-.184.3066667 0 .4906667.184.4906667.552v.98133333l.184.06133333v.06133334c-.092.03066666-.2146667.06133333-.368.06133333-.0613334 0-.1533334 0-.2146667-.03066667V16.321333c.092-.03066667.1226667-.092.1226667-.24533333V15.401333c0-.33733333-.1533334-.49066667-.368-.49066667-.1533334 0-.276.06133334-.368.12266667v1.196l.184.06133333v.06133334c-.1226667.03066666-.2453334.06133333-.3986667.06133333-.092 0-.184 0-.276-.03066667V16.321333zM46.202667 15.98399967c.1226667 0 .184.092.184.21466666 0 .33733334-.276.61333334-.4293333.644l-.092-.03066666c.1533333-.15333334.2146666-.30666667.2146666-.52133334l-.1226666-.15333333c.092-.06133333.184-.15333333.2453333-.15333333zM48.5333337 14.113333c.2453333 0 .3986666.03066667.5213333.092l-.0306667.49066667h-.092v-.06133334c-.0613333-.21466666-.1533333-.30666666-.3986666-.30666666-.3373334 0-.6746667.368-.6746667.98133333 0 .644.3373333.95066667.644.95066667.276 0 .3986667-.092.46-.276l.0306667-.092h.092l-.0306667.46c-.1226667.06133333-.3373333.12266666-.6133333.12266666-.5213334 0-.9506667-.368-.9506667-1.104-.0306667-.79733333.4906667-1.25733333 1.0426667-1.25733333zM49.514667 14.941333l-.2146667-.092v-.06133333c.1533334-.03066667.3066667-.06133334.3986667-.06133334h.1226667l-.0306667.184v.79733334c0 .368.1226667.49066666.3373333.49066666.1226667 0 .276-.06133333.3373334-.092v-1.13466666l-.2146667-.092v-.06133334c.1533333-.03066666.3066667-.06133333.3986667-.06133333h.1226666l-.0306666.184v1.196c.0306666.06133333.092.12266667.1226666.184-.0613333.06133333-.1533333.12266667-.2453333.15333333-.0613333-.06133333-.1226667-.12266666-.1533333-.21466666-.092.092-.276.184-.5213334.184-.3066666 0-.4906666-.184-.4906666-.58266667v-.92h.0613333zM51.2013337 16.321333c.092-.03066667.184-.092.184-.184v-2.05466667l-.2146667-.092v-.092c.1533333-.03066666.3373333-.06133333.4293333-.06133333h.1226667l-.0306667.184v2.17733333l.184.06133334v.06133333c-.1226666.03066667-.2453333.06133333-.3986666.06133333-.092 0-.184 0-.276-.03066666V16.321333zM52.2440003 15.43199967v-.46h-.184V14.849333l.368-.368h.1226667v.30666667h.46l-.0306667.184h-.46V15.79999967c0 .276.092.39866666.2146667.39866666.092 0 .184-.03066666.276-.092h.0306667c0 .21466667-.1226667.30666667-.368.30666667-.276 0-.4293334-.15333333-.4293334-.49066667v-.49066666zM53.3173337 14.941333l-.2146667-.092v-.06133333c.1533333-.03066667.3066667-.06133334.3986667-.06133334h.1226666l-.0306666.184v.79733334c0 .368.1226666.49066666.3373333.49066666.1226667 0 .276-.06133333.3373333-.092v-1.13466666l-.2146666-.092v-.06133334c.1533333-.03066666.3066666-.06133333.3986666-.06133333h.1226667l-.0306667.184v1.196c.0306667.06133333.092.12266667.1226667.184-.0613333.06133333-.1533333.12266667-.2453333.15333333-.0613334-.06133333-.1226667-.12266666-.1533334-.21466666-.092.092-.276.184-.5213333.184-.3066667 0-.4906667-.184-.4906667-.58266667v-.92h.0613334zM55.0040003 16.321333c.092-.03066667.184-.092.184-.184v-1.196l-.2146666-.092v-.092c.1533333-.03066667.3066666-.06133333.4293333-.06133333h.092v.24533333l.092-.12266667c.092-.092.184-.15333333.3066667-.15333333.1226666 0 .184.06133333.184.15333333 0 .06133334-.0306667.15333334-.0613334.21466667-.0613333-.06133333-.1533333-.092-.2146666-.092-.1226667 0-.2146667.06133333-.3066667.15333333V16.229333l.2453333.06133333v.06133334c-.1226666.03066666-.2453333.06133333-.4293333.06133333-.092 0-.2146667 0-.276-.03066667V16.321333h-.0306667zM56.8440003 14.665333c.368 0 .6133334.24533333.6133334.67466667v.21466666H56.414667c0 .39866667.2146667.61333334.5213333.61333334.184 0 .368-.06133334.4906667-.15333334v.092c0 .15333334-.2453333.30666667-.6133333.30666667-.3986667 0-.736-.30666667-.736-.79733333.0306666-.61333334.3986666-.95066667.7666666-.95066667zm.3373334.70533333c0-.33733333-.1533334-.52133333-.368-.52133333-.184 0-.3986667.24533333-.3986667.52133333h.7666667zM59.2360003 15.46266633v-.092c0-.368-.092-.46-.3066666-.46-.184 0-.368.092-.5213334.21466667v-.092c0-.21466667.1533334-.368.5826667-.368.368 0 .5826667.184.5826667.46v.95066667c.0306666.06133333.092.12266666.1533333.184-.0613333.06133333-.1533333.12266666-.2453333.184-.0613334-.03066667-.1226667-.092-.1533334-.184-.092.092-.276.184-.4906666.184-.276 0-.46-.15333334-.46-.39866667-.0613334-.30666667.276-.58266667.8586666-.58266667zm-.3373333.76666667c.1226667 0 .2453333-.03066667.3373333-.092v-.49066667c-.3986666 0-.6133333.15333334-.6133333.368 0 .12266667.092.21466667.276.21466667zM59.910667 16.321333c.092-.03066667.184-.092.184-.184v-1.196l-.2146667-.092v-.092c.1533334-.03066667.3066667-.06133333.4293334-.06133333h.092v.184c.1226666-.12266667.3066666-.184.5213333-.184.3066667 0 .4906667.184.4906667.552v.98133333l.184.06133333v.06133334c-.092.03066666-.2146667.06133333-.368.06133333-.0613334 0-.1533334 0-.2146667-.03066667V16.321333c.092-.03066667.1226667-.092.1226667-.24533333V15.401333c0-.33733333-.1533334-.49066667-.368-.49066667-.1533334 0-.276.06133334-.368.12266667v1.196l.184.06133333v.06133334c-.1226667.03066666-.2453334.06133333-.3986667.06133333-.092 0-.184 0-.276-.03066667V16.321333zM62.6093337 14.69599967c.092 0 .184 0 .2453333.03066666V14.113333l-.2453333-.092v-.092c.1533333-.03066667.3373333-.06133333.4293333-.06133333h.1226667l-.0306667.184v2.024c.0306667.06133333.0613333.15333333.1226667.21466666-.0613334.06133334-.1533334.12266667-.2453334.15333334-.0613333-.06133334-.1226666-.12266667-.184-.21466667-.1226666.12266667-.3066666.21466667-.46.21466667-.368 0-.644-.30666667-.644-.76666667.0613334-.644.4293334-.98133333.8893334-.98133333zm.2453333 1.38v-1.16533334c-.0613333-.03066666-.1533333-.03066666-.2453333-.03066666-.3066667 0-.5213334.24533333-.5213334.736 0 .39866666.2146667.58266666.4293334.58266666.1226666 0 .276-.03066666.3373333-.12266666zM16.302667 19.817333h.092l.03066667.092c.06133333.184.15333333.276.42933333.276s.46-.15333333.46-.368c0-.12266667-.092-.276-.30666667-.39866667l-.33733333-.184c-.21466667-.12266666-.30666667-.30666666-.30666667-.52133333 0-.33733333.33733334-.61333333.736-.61333333.21466667 0 .368.03066666.49066667.092l-.03066667.49066666h-.092V18.621333c-.03066666-.21466667-.15333333-.276-.368-.276-.24533333 0-.42933333.15333333-.42933333.33733333 0 .15333334.06133333.24533334.276.368l.33733333.184c.24533334.12266667.368.30666667.368.552 0 .368-.368.67466667-.79733333.67466667-.21466667 0-.39866667-.03066667-.552-.06133333V19.817333zM18.694667 18.68266633c.276 0 .368.092.368.21466667 0 .06133333-.03066667.12266667-.03066667.184-.12266666-.092-.276-.15333333-.39866666-.15333333-.24533334 0-.46.24533333-.46.644 0 .42933333.21466666.644.49066666.644.12266667 0 .30666667-.06133334.39866667-.15333334 0 .03066667.03066667.06133334.03066667.092 0 .15333334-.184.30666667-.52133334.30666667-.39866666 0-.70533333-.30666667-.70533333-.79733333 0-.644.368-.98133334.828-.98133334zM19.30800033 20.30799967c.092-.03066667.184-.092.184-.184v-1.196l-.21466666-.092v-.06133334c.15333333-.03066666.30666666-.06133333.42933333-.06133333h.12266667l-.03066667.184v1.34933333l.184.06133334v.06133333c-.12266667.03066667-.21466667.06133333-.39866667.06133333-.092 0-.184 0-.276-.03066666v-.092zm.15333334-2.14666667c0-.12266667.092-.21466667.21466666-.21466667.092 0 .184.06133334.184.184 0 .12266667-.092.21466667-.184.21466667-.15333333.03066667-.21466666-.06133333-.21466666-.184zM20.93333367 18.65199967c.368 0 .61333333.24533333.61333333.67466666v.21466667h-1.04266667c0 .39866667.21466667.61333333.52133334.61333333.184 0 .368-.06133333.49066666-.15333333v.092c0 .15333333-.24533333.30666667-.61333333.30666667-.39866667 0-.736-.30666667-.736-.79733334.03066667-.61333333.39866667-.95066666.76666667-.95066666zm.33733333.70533333c0-.33733333-.15333333-.52133333-.368-.52133333-.184 0-.39866667.24533333-.39866667.52133333h.76666667zM21.79200033 20.30799967c.092-.03066667.184-.092.184-.184v-1.196l-.21466666-.092v-.092c.15333333-.03066667.30666666-.06133334.42933333-.06133334h.092v.184c.12266667-.12266666.30666667-.184.52133333-.184.30666667 0 .49066667.184.49066667.552v.98133334l.184.06133333v.06133333c-.092.03066667-.21466667.06133334-.368.06133334-.06133333 0-.15333333 0-.21466667-.03066667v-.06133333c.092-.03066667.12266667-.092.12266667-.24533334v-.67466666c0-.33733334-.15333333-.49066667-.368-.49066667-.15333333 0-.276.06133333-.368.12266667v1.196l.184.06133333v.06133333c-.12266667.03066667-.24533333.06133334-.39866667.06133334-.092 0-.184 0-.276-.03066667v-.06133333zM24.490667 18.68266633c.276 0 .368.092.368.21466667 0 .06133333-.03066667.12266667-.03066667.184-.12266666-.092-.276-.15333333-.39866666-.15333333-.24533334 0-.46.24533333-.46.644 0 .42933333.21466666.644.49066666.644.12266667 0 .30666667-.06133334.39866667-.15333334 0 .03066667.03066667.06133334.03066667.092 0 .15333334-.184.30666667-.52133334.30666667-.39866666 0-.70533333-.30666667-.70533333-.79733333 0-.644.368-.98133334.828-.98133334zM25.778667 18.65199967c.368 0 .6133333.24533333.6133333.67466666v.21466667h-1.04266663c0 .39866667.21466666.61333333.52133333.61333333.184 0 .368-.06133333.4906667-.15333333v.092c0 .15333333-.2453334.30666667-.61333337.30666667-.39866666 0-.736-.30666667-.736-.79733334.03066667-.61333333.39866667-.95066666.76666667-.95066666zm.3373333.70533333c0-.33733333-.1533333-.52133333-.36799997-.52133333-.184 0-.39866666.24533333-.39866666.52133333h.76666663z"/><g><path d="M6.54142988 16.4246177c.0923077-.049955.21538462-.049955.18461539.0499551 0 0-.03076923.0249775-.12307692.0249775v.049955s-.03076923.0249775 0 .049955c0 0 .09230769-.049955.15384615-.0249775.03076923.0499551 0 .0999101-.15384615.1248876-.18461539.0249775-.30769231.0749325-.30769231.2497751.15384615 0 .24615384.0499551.36923077.0999101.18461538.0749325.36923077-.0249775.36923077-.0249775-.03076923-.0249775-.06153846-.1248876.03076923-.1748426.03076923.049955.12307692.0749325.15384615.0249775-.09230769-.049955-.09230769-.0999101-.06153846-.1748426.03076923.049955.15384615 0 .15384615-.0249775-.06153846.0249775-.09230769-.049955-.09230769-.0749326 0-.0249775.03076923-.1748426-.03076923-.2497751.03076923-.0249775.15384615-.0749325.18461539-.0749325v-.0249776c-.06153847-.0249775-.18461539 0-.18461539-.0249775l-.03076923-.1498651-.15384615.0499551c-.03076923 0-.0923077-.0999101-.12307693-.1248876 0 0-.03076923 0 0 0 .03076923.0249775.03076923.1248876.03076923.1748426-.12307692 0-.18461538.0249775-.18461538.0749325-.03076923 0-.15384615.0749326-.15384615.0999101 0 0 0 .0249775.03076923.0249775-.12307693-.0249775-.12307693.0249775-.06153847.049955zm.24615385-.149865c-.03076923.0749325-.09230769.0749325-.15384615.0249775 0 0 .06153846-.0249775.15384615-.0249775z"/><path d="M7.19139442 16h1v1h-1zM6.13512521 16.9141321c-.0346272 0-.0346272 0 0 0-.0346272.1030415.03462721.1717358.10388162.1717358.10388162 0 .10388162-.0686943.24239044-.1030415v-.0343471h-.17313603c-.13850882.0343471-.17313603 0-.17313603-.0343472zM3.43378486 16.011128c0-.0686943-.06925441-.1030415-.27701764-.0686943.0346272.1373886.17313602.1717358.27701764.0686943z"/><path d="M5.44912219 16.7567568l-.11538461.1081081c-.03846154.027027.07692307.081081.11538461.054054l.11538462-.1351351s.42307692.1621621.53846154.2162162c0-.0540541.03846153-.1081081.07692307-.1621622-.11538461-.027027-.38461538-.081081-.38461538-.081081 0 .027027-.03846154.027027-.07692308.027027-.07692308 0-.11538461-.0540541-.11538461-.0810811 0 0 .07692307.027027.07692307 0l.03846154-.0540541.11538462.0270271.03846154-.0540541-.07692308-.027027.5-.4864865V16c-.03846154 0-.11538462.027027-.15384616.027027l-.5.4594595-.07692307-.0540541-.03846154.0540541.07692308.054054-.03846154.0540541c-.11538462-.0540541-.19230769 0-.23076923.027027.03846154 0 .15384615-.027027.15384615.027027-.11538461-.027027-.19230769.0270271-.19230769.0540541.03846154.027027.11538461.027027.15384615.0540541zM10.4337849 15.9232654c-.1731361 0-.2423905 0-.2770177.0686943.1038816.1373886.2423905.1030415.2770177-.0686943zM8.27022339 17.0269058c0 .0358745-.03814035.1076233-.15256141.1076233-.0762807 0-.2288421-.0358744-.34326315-.0358744-.19070175 0-.26698246.1434978-.26698246.2511211 0 .2152466.22884211.2511211.22884211.4663677 0 .1434978-.22884211.2152466-.41954386.0717489-.03814035-.1793722-.0762807-.32287-.19070175-.4663677-.41954386.1434977-.53396491-.1434978-.76280701-.1434978-.19070176 0-.45768421.32287-.64838596.3946188l.03814035-.1793722h.03814035v-.1793722l-.03814035.1076234c-.03814035-.0358745-.07628071-.1434978-.07628071-.1434978v.1434978l-.11442105-.1434978s.03814035.1076233.03814035.1793722l-.1525614-.1434978s.03814035.1076234.0762807.1793722c-.03814035 0-.1525614-.1076233-.1525614-.1076233s.0762807.0717489.11442105.1434978c-.0762807-.0358745-.1525614-.0717489-.1525614-.0717489s.03814035.0358744.11442105.1076233h-.1525614l.1525614.0717489.1525614.0358744c-.03814035.0358745-.03814035.0717489 0 .1076234 0-.0358745.03814035-.0717489.15256141-.0717489-.03814035 0-.11442106.0717489-.07628071.1793722.03814036-.0358745.11442106-.0717489.11442106-.0717489l-.03814035.1793722c.1525614.0358744.3051228-.0358744.3051228-.2152466l-.1525614-.0358745c.19070175-.1076233.41954386-.2152466.61024561-.2152466.34326315 0 .57210526.3587444.57210526.5381166 0 .0358744 0 .1434977-.03814035.1793722-.0762807.0717489-.11442105.0717489-.15256141.0358744.03814036.1076233.19070176.1076233.19070176.0358745.0762807.251121.41954385-.0358745.61024561.3228699 0 0-.11442105.0358744-.1525614 0-.11442106-.0717489-.15256141 0-.19070176.0358744.11442105-.0358744.1525614.0358745.1525614.0717489-.0762807-.0358744-.19070175 0-.1525614.1434978.03814035-.1076233.11442105-.0717489.11442105-.0717489-.03814035.0358744-.11442105.1076233 0 .1793722 0-.0717489.03814035-.1076233.07628071-.1076233.03814035 0 .11442105 0 .1525614-.0717489.03814035.0717489.1525614.0358744.19070175.0358744-.0762807-.0358744-.1525614-.0717488-.0762807-.1076233 0 0 .1525614.0358745.19070175-.0717489 0 0-.1525614.0717489-.19070175-.0358744-.03814035-.0717489-.03814035-.2152466-.11442105-.2511211.0762807-.0358744.11442105-.0717488.03814035-.1793722 0 .1793722-.41954386.0358745-.41954386-.2152466.30512281.0717489.57210526 0 .57210526-.2511211s-.26698245-.3587444-.26698245-.5022421c0-.0717489.0762807-.1076234.11442105-.1076234.11442105 0 .2288421.1076234.26698245.2152467.03814035-.0358745.03814035-.1434978 0-.1434978.03814035 0 .22884211 0 .22884211-.1434977.0762807 0 .0762807-.0358745.03814035-.0358745.03814035-.0358744 0-.0358744 0 0z"/><path d="M.29527604 0v25H13.295276V0H.29527604zm9.65311653 15.0949796c0-.0678426.10569103-.2035278.42276423-.1356852.1409214.0339213.2466125-.0339213.2113821-.1017639h.0352304c.0352303.0339213.0704607.1356852-.0352304.2035278-.1409214.0678426-.1409214.2035279-.1409214.2374492 0 .0339213.0352304.0339213.0352304 0 .0704607-.2374492.3875338-.2713705.5989159-.1696066 0 .1356853-.1409214.2035279-.2113821.2035279-.0352303 0-.105691-.0339213-.105691-.1017639 0-.0339213 0-.0339213-.0352304 0-.0352303.0678426.1056911.2374491.2818428.1356852.1761518.1696065.1056911.4070556.1056911.5088195-.0352304.1356852.0352303.3052917.1761518.2374491 0 .1017639-.1409215.2035278-.2818429.1356852-.0352303.0339213-.2466124.3052918.1056911.4070557 0 0 .0352303.0339213 0 .0339213-.2466125.1017639-.3523035-.0678426-.3523035-.0678426-.1056911.2713704.0704607.4070556.0704607.4070556-.0352304.0339213-.1409214.1356852-.3170732.1696065-.0704607-.0339213-.1761518-.1017639-.2113821-.2035278 0 0-.0352304.1017639 0 .2374491-.49322494.0339213-.6693767-.339213-1.05691058-.2713704 0-.2374491.14092141-.6784261.63414635-.7462687.45799453-.1017639.35230353-.2713704.35230353-.2713704-.2113821 0-.31707318.0678426-.31707318.0678426-.03523035-.0678426 0-.1017639 0-.1017639-.03523035-.0339213-.03523035-.1017639-.03523035-.1017639.21138213 0 .28184283-.0339213.28184283-.0339213.0352303-.1356852-.0704607-.3052917-.38753389-.1017639-.07046071-.0678426-.07046071-.1696065-.07046071-.1696065-.03523035 0-.03523035-.0339213-.03523035-.0678426-.0704607-.1696065.21138212-.3052918.28184282-.3392131zm-.77506775.4748983c0-.0339213 0-.0339213 0 0 .03523035.0678426.14092141.1017639.24661247.1017639.10569105 0 .1409214-.0339213.31707317-.0339213 0 0 .14092141 0 .14092141.0339213s-.07046071 0-.14092141.0339213c-.17615177.0339213-.24661247.1017639-.38753388.1017639-.10569106 0-.21138211-.1017639-.17615176-.2374491zm-2.60704607-2.8833107c.03523035 0 .0704607.0339213.10569106.0339213.03523035.0339213.0704607.0339213.0704607 0 0 0 .03523035-.0339213 0-.0678426 0-.0339213-.03523035-.0678426-.03523035-.1017639 0-.0678427.03523035-.101764.0704607-.101764s.07046071.0339213.07046071.101764c0 .0339213-.03523036.0678426-.03523036.1017639-.03523035.0339213-.03523035.0678426 0 .0678426 0 0 .03523036.0339213.07046071 0 .03523035 0 .0704607-.0339213.10569106-.0339213.0704607 0 .10569105.0339213.10569105.0678426s-.03523035.0678426-.10569105.0678426c-.03523036 0-.07046071-.0339213-.10569106-.0339213-.03523035-.0339213-.07046071-.0339213-.07046071 0 0 0 0 .1356852.03523036.2713704.10569105.0339213.17615176.1017639.17615176.1696065 0 .1356852-.14092141.2035278-.24661247.2713704-.10569105-.0339213-.24661246-.1356852-.24661246-.2713704 0-.0678426.0704607-.1356852.17615176-.1696065 0-.1017639.03523035-.2374491.03523035-.2713704 0 0-.03523035-.0339213-.0704607 0-.03523036 0-.07046071.0339213-.10569106.0339213-.07046071 0-.10569106-.0339213-.10569106-.0678426s.03523035-.0678426.10569106-.0678426zm.38753387 1.0515603c0 .101764-.0704607.1696066-.17615176.1696066-.10569105 0-.17615176-.0678426-.17615176-.1696066 0-.1017639.07046071-.1696065.17615176-.1696065.10569106 0 .17615176.0678426.17615176.1696065zm-1.58536585.0339213c.14092141 0 .14092141.101764.28184282.101764h.03523035c0 .0339213-.03523035.1017639-.10569106.1017639-.0704607 0-.0704607-.0678426-.1409214-.0678426-.03523036 0-.07046071.0339213-.07046071.1017639 0 .1696065.10569106.339213.24661247.4748982.03523035-.0339213.0704607-.0678426.10569105-.0678426.07046071 0 .14092141.0678426.14092141.1696065 0 .0339213 0 .0678426-.03523035.1017639.03523035.0339213.0704607.0339213.10569106.0339213.0704607 0 .14092141-.0339213.14092141-.1356852 0-.2713704-.38753388-.5088195-.38753388-.8480326 0-.1696065.10569106-.339213.35230352-.339213.24661247 0 .21138212.2374491.42276423.2374491h.03523035s-.03523035.1356852-.14092141.1356852c-.10569105 0-.1409214-.2035278-.24661246-.2035278-.03523035 0-.10569106.0339213-.10569106.1696065 0 .101764.07046071.2713705.14092141.440977.03523035-.0339213.07046071-.0339213.10569106-.0339213.10569105 0 .17615176.1017639.17615176.2035278 0 .0678426-.03523035.1356852-.07046071.1696065.07046071.0678426.10569106.1356852.17615177.1356852.14092141 0 .21138211-.0678426.21138211-.1696065 0-.1017639-.17615176-.1356852-.17615176-.2713704 0-.1017639.0704607-.1696065.14092141-.1696065.0704607 0 .10569105.0339213.10569105.0339213s.03523036-.0339213.10569106-.0339213c.07046071 0 .14092141.0678426.14092141.1696065 0 .1356852-.17615176.1696065-.17615176.2713704 0 .1017639.0704607.1696065.21138211.1696065.07046071 0 .14092141-.0678426.17615176-.1356852-.03523035-.0339213-.0704607-.1017639-.0704607-.1696065 0-.1017639.0704607-.2035278.17615176-.2035278.03523035 0 .07046071.0339213.10569106.0339213.0704607-.1696065.14092141-.339213.14092141-.440977 0-.1356852-.07046071-.1696065-.10569106-.1696065-.10569106 0-.14092141.2035278-.24661247.2035278-.10569105 0-.1409214-.1356852-.1409214-.1356852h.03523035c.21138211 0 .17615176-.2374491.42276423-.2374491.24661246 0 .35230352.1696065.35230352.339213 0 .3392131-.38753388.5766622-.38753388.8480326 0 .1356852.07046071.1356852.14092141.1356852.03523035 0 .07046071 0 .10569106-.0339213 0-.0339213-.03523035-.0678426-.03523035-.1017639 0-.1017639.0704607-.1696065.14092141-.1696065.03523035 0 .0704607.0339213.10569105.0678426.14092141-.1356852.24661247-.3052917.24661247-.4748982 0-.0678426-.03523035-.1017639-.07046071-.1017639-.0704607 0-.0704607.0678426-.1409214.0678426-.07046071 0-.10569106-.0678426-.10569106-.1017639h.03523035c.14092141 0 .10569106-.101764.28184282-.101764.03523035 0 .24661247.0339213.24661247.2713705 0 .3731343-.45799458.4748982-.35230353.7462686-.21138211-.0339213-.21138211.1696065-.21138211.5088196 0 0-.38753388-.1356852-1.09214092-.1356852-.70460705 0-1.09214092.1356852-1.09214092.1356852 0-.3392131 0-.5088196-.21138212-.5088196.10569106-.2713704-.35230352-.4070556-.35230352-.7462686-.03523035-.2713705.14092141-.2713705.17615176-.2713705zm-.98644986 1.7978291c.03523035-.0339213.03523035-.0339213 0 0 .0704607.1696065-.03523036.2374491-.17615177.2374491-.1409214 0-.21138211-.1017639-.38753387-.1017639-.07046071 0-.14092141 0-.14092141-.0339213s.10569106-.0339213.14092141-.0339213c.17615176 0 .21138211.0339213.31707317.0339213.14092141 0 .24661247-.0339213.24661247-.1017639zm-2.04336044.5427408c.14092141.0678426.21138212-.0678426.17615176-.2374491-.03523035-.0678426-.10569105-.3052917.10569106-.5088195.17615176.1017639.31707317-.0678426.28184282-.1356852 0-.0339213-.03523035-.0339213-.03523035 0 0 .0678426-.07046071.1017639-.10569106.1017639-.0704607 0-.21138211-.0678426-.21138211-.2035279.21138211-.1356852.52845528-.0678426.59891599.1696066 0 .0339213.03523035.0339213.03523035 0s0-.1696066-.14092141-.2374492-.07046071-.1696065-.03523035-.2035278h.03523035c-.03523035.0678426.0704607.1356852.21138211.1017639.31707317-.0339213.42276423.0678426.42276423.1356852.0704607 0 .31707317.1696066.31707317.2035279 0 0 0 .0678426-.03523035.0678426 0 0 0 .1017639-.07046071.1696065-.31707317-.2035278-.42276422 0-.38753387.1017639 0 0 .0704607.0339213.28184282.0339213 0 0 0 .0678426-.03523036.1017639 0 0 .03523036.0678426 0 .1017639 0 0-.10569105-.0678426-.31707317-.0678426 0 0-.14092141.1696065.35230353.2713704.45799458.1017639.63414634.5088196.63414634.7462687 0 0 0 .0339213 0 0-.38753388-.0678426-.56368564.3052917-1.05691057.2713704.03523035-.1017639 0-.2374491 0-.2374491-.03523035.1017639-.14092141.1696065-.21138211.2035278-.17615177-.0339213-.28184282-.1017639-.31707318-.1696065 0 0 .17615177-.1356852.07046071-.4070556 0 0-.10569106.1696065-.35230352.0678426-.03523036 0 0-.0339213 0-.0339213.31707317-.101764.10569105-.3731344.10569105-.4070557-.17615176.2035278-.31707317.1017639-.31707317 0 0-.0339213 0-.0339213 0 0zm2.39566396 5.0881954c0 .4748982-.8102981.0339213-1.58536585-.0339213-.63414635-.0339213-.84552846.1356852-.84552846.1356852l.10569106-.6445047c0-.0339213.14092141-.1356852.59891599-.1356852.52845528 0 .8102981.1017639.91598916.1356852v.339213c0 .0678426.03523035.1017639.10569105.1356852 0-.0339213.10569106-.2035278.70460705-.2035278v.2713704zm-.7398374-2.5101764c-.0704607-.0678426-.45799458-.2035278-.66937669-.2713704.0704607 0 .10569105-.0339213.10569105-.1017639 0-.0339213 0-.1017639-.0704607-.1356852.10569106-.1017639.31707317-.1696065.42276423-.1696065.42276422 0 .77506775.5427408.91598916.5427408.03523035 0 .03523035 0 .0704607-.0339213 0 .1696065-.10569106.1696065-.14092141.1696065-.03523035 0-.0704607 0-.0704607-.0339213v.0339213c0 .2035278-.21138212.4070557-.21138212.4070557.10569106.1017639.31707317.2374491.38753388.1696065.03523035-.0339213.14092141-.2374492.31707317-.0678426-.10569106 0-.17615176.0678426-.14092141.1696065.14092141-.1017639.31707317-.1017639.31707317.1356852-.10569106-.1356852-.21138211-.0339213-.24661246-.0339213.10569105 0 .24661246.1356852.10569105.3052917 0-.1356852-.10569105-.1356852-.14092141-.1356852-.14092141 0-.21138211.1017639-.31707317 0-.03523035.1696065-.21138211.1356852-.28184282.1356852.07046071-.0339213.10569106-.1017639.10569106-.1356852 0-.1017639-.21138211-.2374491-.28184282-.2374491-.0704607 0-.10569105.0678426-.21138211.0678426-.07046071 0-.10569106-.0339213-.17615176-.1017639.03523035 0 .17615176.0339213.21138211-.1696065.10569106-.2713705.10569106-.4070557 0-.5088196zm.10569106 2.2048847c-.03523035 0-.03523035 0 0 0l-.03523035-.6445048c0-.2035278 1.33875338-.3052917 2.71273712-.3052917 1.40921409 0 2.71273713.1017639 2.71273713.3052917v.6445048s0 .0339213-.03523035 0c-.17615176-.1696065-1.44444445-.2374491-2.71273713-.2374491-1.19783198-.0339213-2.50135501.0339213-2.64227642.2374491zm4.36856368-1.7299864c.14092141-.1696066.28184282.0339213.31707317.0678426.07046071.0678426.31707317-.0678426.38753388-.1696066 0 0-.21138211-.2035278-.21138211-.4070556v-.0339213c-.03523036 0-.03523036.0339213-.07046071.0339213-.03523035 0-.14092141 0-.14092141-.1696065.03523035.0339213.03523035.0339213.07046071.0339213.17615176 0 .52845528-.5427408.91598916-.5427408.10569105 0 .31707314.0678426.42276424.1696065-.0352304.0339213-.0704607.1017639-.0704607.1356852 0 .0678426.0704607.1017639.105691.1017639-.21138208.0678426-.59891595.2035278-.66937666.2713704-.10569105.0678426-.0704607.2374491-.03523035.4748983.0704607.2035278.17615176.1696065.21138211.1696065-.0704607.0678426-.10569105.1017639-.17615176.1017639-.10569105 0-.14092141-.0678426-.21138211-.0678426-.10569106 0-.28184282.1356852-.28184282.2374491 0 .0678426.03523035.1017639.10569106.1356852-.03523036 0-.24661247.0339213-.28184282-.1356852-.10569106.1356852-.21138212 0-.31707317 0-.07046071 0-.14092141.0339213-.14092141.1356852-.14092141-.2035278.03523035-.3052917.10569106-.3052917-.03523036-.0339213-.17615177-.1017639-.24661247.0339213 0-.2374491.17615176-.2374491.31707317-.1356852.0704607-.0678426 0-.1356852-.10569106-.1356852zm1.97289973 2.0352781c-.77506775.0339213-1.58536585.5088195-1.58536585.0339213v-.2713704c.59891599 0 .70460704.2035278.70460704.2035278.07046071-.0339213.10569106-.0678426.10569106-.1356852v-.339213c.10569106-.0339213.35230355-.1356852.91598915-.1356852.4579946 0 .598916.1017639.598916.1356852l.1056911.6445047c0-.0339213-.1761518-.2035278-.8455285-.1356852zm1.6910569-4.3419267c-.0704607 0-.1409214-.0339213-.1761517-.0339213 0 0-.0352304 0 0 0 .0704607.1017639.0704607.2374491.0352303.3052917h-.0352303c-.0352304-.1696065-.2113822-.339213-.4227643-.339213-.2818428 0-.2818428.2035278-.2818428.2713704 0 .3052917.5636856.5427408.5636856.9837178 0 .4409769-.4932249.5427408-.7750677.4748982 0 .4409769.5284553.5766622.5636856.2713704 0 0 0-.0339213.0352304 0 .0704607.1696065.0352303.3052918-.1761518.3392131v.0339213c.2113821.1356852.1056911.6105834.0704607.7462686 0 .2035278.2113821.1696065.2113821.1696065v.0339213c-.1409214.1696065-.3523035 0-.3523035 0-.1409214.0339213-.0704607.1696065.0352304.2035278v.0339213c-.0352304 0-.2466125.0339213-.2818429-.1356852-.105691.1017639-.2466124.0678426-.2818428.0678426-.0352303-.0339213-.2466124-.1017639-.2818428.1356853-.1409214-.1696066 0-.3052918.1056911-.3052918 0 0-.1409214-.1017639-.2466125.0339213 0-.2374491.1761518-.2713704.3170732-.1696065 0-.0339213.0352303-.1696065-.1409214-.1356852.1409214-.1696065.2818428 0 .3170731.0339213.0704607.0678426.2466125.0339213.2466125.0339213-.0352304-.8141112-.8102981-.5427408-.9159892-.9158752 0-.0339213 0 0 0 0-.0352303.101764-.28184278.101764-.31707313-.0678426 0 0 0-.0339213 0 0 .21138213.2035279.70460703-.4409769.03523035-.9837177-.56368563-.440977-1.09214092-.2035279-1.26829268-.0678426 0 .0678426.03523035.1017639.0704607.1017639-.0704607.0339213-.14092141 0-.17615176-.0339213-.10569105.0678426 0 .1696065.03523035.2035278v.0339213c-.10569105.0339213-.21138211-.1017639-.21138211-.1696065h-.03523035v.4748982c0 .6784261-.8102981.7462687-1.65582656 1.3229308-.88075881-.5766621-1.65582656-.6445047-1.65582656-1.3229308v-.4748982H5.0513736c0 .0678426-.10569106.1696065-.21138211.1696065v-.0339213c.03523035-.0339213.14092141-.1356852.03523035-.2035278-.03523035.0339213-.10569106.0678426-.17615176.0339213.03523035 0 .0704607-.0339213.0704607-.1017639-.21138211-.1356853-.70460704-.4070557-1.26829268.0678426-.6693767.5427408-.17615176 1.1872456.03523035.9837177-.03523035.2035279-.31707317.1696066-.31707317.0678426-.10569106.4070557-.84552846.101764-.91598916.9158752 0 0 .17615176.0339213.24661247-.0339213.03523035-.0339213.14092141-.1696065.31707317-.0339213-.21138212 0-.14092141.1356852-.14092141.1356852.14092141-.1017639.31707317-.0678426.31707317.1696065 0 .0339213 0 0 0 0-.10569106-.1356852-.24661247-.0339213-.24661247-.0339213.10569106 0 .24661247.1356852.10569106.3052918 0 0 0 .0339213 0 0-.03523035-.2035279-.21138211-.1356853-.28184282-.1356853-.03523035 0-.17615176.0678426-.28184282-.0678426-.03523035.1696065-.24661246.1356852-.28184282.1356852v-.0339213c.10569106-.0678426.17615177-.1696065.03523036-.2035278 0 0-.17615177.1696065-.35230353 0v-.0339213s.24661247.0339213.21138212-.1696065c0-.1356852-.10569106-.6105834.0704607-.7462686 0 0 .03523035 0 0-.0339213-.21138211-.0339213-.24661246-.1696066-.17615176-.3392131 0-.0339213.03523035 0 .03523035 0 0 .3052918.52845529.1696065.56368564-.2713704-.28184282.0678426-.77506775-.0339213-.77506775-.4748982 0-.440977.56368564-.6784261.56368564-.9837178 0-.0678426 0-.2713704-.28184282-.2713704-.21138212 0-.38753388.1696065-.42276423.339213h-.03523035c-.03523036-.0339213-.03523036-.2035278.03523035-.3052917 0 0 0-.0339213 0 0-.03523035 0-.10569106.0339213-.17615176.0339213-.17615176 0-.28184282-.1017639-.28184282-.2374491 0-.1017639.03523035-.1356852.03523035-.1696065 0 0 0-.0339214.03523035 0 .03523036.0339213.07046071.1696065.24661247.1696065h.42276423c.49322493 0 .52845528.3731343.52845528.4748982 0 .3731343-.49322493.5427408-.49322493.9497965 0 .1017639.03523035.2374491.31707317.2374491.10569106 0 .21138211-.0339213.28184282-.0678426 0 0 .10569106-.6784261.45799458-.9158752 0 0 .42276423.2035278.8102981-.0339213.31707317-.1696065.45799458-.2713704.70460705-.1017639.28184282.1696065.49322493.3731343.52845528.3731343h.07046071v-1.5603799c-.14092141 0-.14092141.1017639-.14092141.1356852s.03523035.0678426-.03523035.1696065h-.03523036c0-.0339213-.03523035-.0678426-.0704607-.0678426s-.24661247.1356852-.38753388.3052918c0 0-.10569105-.2713705-.31707317-.3392131.14092141-.0339213.6693767-.1356852.6693767-.3731343 0-.0678426.10569105-.1017639.14092141-.1017639 0 0 .10569105-.2035278.24661246-.1017639v.0339213c-.0704607 0-.10569105.1017639-.10569105.1696065.0704607-.0339213.21138211-.0678426.38753387-.1017639v.5088195h.21138211v-.5427408c.28184282-.0339213.63414635-.1017639 1.05691057-.1017639.81029811 0 1.4796748.1696065 1.65582656.2374491 0-.0678426-.03523035-.1696065-.10569106-.1696065v-.0339213c.17615177-.1017639.24661247.1017639.24661247.1017639.07046071 0 .14092141 0 .14092141.1017639 0 .2374491.56368564.3731343.66937669.3731343-.21138211.0678426-.31707317.3392131-.31707317.3392131-.17615176-.1696066-.35230352-.3052918-.38753387-.3052918-.03523035 0-.07046071.0678426-.07046071.0678426-.0704607-.1356852-.03523035-.1356852-.03523035-.1696065 0-.0339213 0-.1356852-.14092141-.1356852v1.5603799h.07046071c.03523035 0 .24661246-.2035278.52845528-.3731343.28184282-.1696065.42276423-.0678426.70460705.1017639.38753387.2035278.81029805.0339213.81029805.0339213.3523036.2374491.4579946.9158752.4579946.9158752.0704607.0339213.1761518.0678426.2818428.0678426.2466125 0 .3170732-.1696065.3170732-.2374491 0-.4070557-.4932249-.5766622-.4932249-.9497965 0-.1017639.0352303-.4748982.5284553-.4748982h.4227642c.1761518 0 .2466125-.1356852.2466125-.1696065 0-.0339214.0352303 0 .0352303 0 0 .0339213.0352304.0678426.0352304.1696065.1761517.1356852.0704607.2374491-.1056911.2374491z"/><path d="M7.19139442 19h1v1h-1zM6.29527604 18.2487562c-.0625 0-.125-.0932836-.0625-.1865671-.0625-.0310946-.125-.0621891-.15625-.0621891-.21875 0-.375.2487562-.40625.2798507-.03125.0310946-.09375.0932836-.125.0310946 0 .0932836.09375.0932836.125.0932836 0 .0932835.0625.2798507.0625.2798507s-.09375.0932836-.15625.0932836c-.03125 0-.0625-.0932836-.125-.0932836-.03125 0-.03125 0-.0625.0310945.0625 0 .09375.0310946.0625.0621891-.0625-.0621891-.15625-.0310945-.15625.062189.03125-.062189.125-.0310945.125 0-.03125 0-.125.0621891-.0625.1554727 0-.0310946 0-.0621891.0625-.0621891s.125.0621891.15625 0c.03125.0932836.09375.0621891.125.0621891-.03125-.0310946-.0625-.0621891-.0625-.0621891 0-.062189.09375-.1243781.15625-.1243781.03125 0 .03125.0310945.09375.0310945.03125 0 .0625 0 .09375-.0310945-.0625.0310945-.125-.062189-.125-.1865672 0-.2176616.125-.2798507.4375-.3731343z"/></g></g></svg>